<svg width="191" height="75" viewBox="0 0 191 75" fill="none" xmlns="http://www.w3.org/2000/svg">
<path d="M51.3611 7.23866C51.3611 8.89563 50.683 10.481 49.4749 11.6556C48.2668 12.8256 46.6242 13.4845 44.9147 13.4845C43.2052 13.4845 41.5673 12.8256 40.3544 11.6556C39.1463 10.4857 38.4683 8.89563 38.4683 7.23866C38.4683 5.5817 39.1463 3.99636 40.3544 2.82168C41.5625 1.65177 43.2004 0.992798 44.9147 0.992798C46.6242 0.992798 48.262 1.65177 49.4749 2.82168C50.6783 3.99158 51.3611 5.5817 51.3611 7.23866Z" fill="#FF2400"/>
<path d="M51.3611 17.1946H38.4683V47.2254H51.3611V17.1946Z" fill="#FF2400"/>
<path d="M114.063 29.8869V17.1946H93.5396V29.8869H114.063Z" fill="#FF2400"/>
<path d="M17.3767 35.7604C26.9746 35.7604 34.7533 27.977 34.7533 18.379C34.7533 8.781 26.9746 0.997559 17.3767 0.997559C7.77867 0.997559 0 8.781 0 18.379V47.2255H12.5729V35.0871V18.4076C12.5729 18.3981 12.5729 18.3885 12.5729 18.379C12.5729 15.724 14.7265 13.5704 17.3814 13.5704C20.0364 13.5704 22.19 15.724 22.19 18.379C22.19 21.034 20.0364 23.1875 17.3814 23.1875C16.9994 23.1875 16.627 23.1446 16.2736 23.0586V35.727C16.6317 35.7461 17.0042 35.7604 17.3767 35.7604Z" fill="#FF2400"/>
<path d="M173.623 35.7604C183.221 35.7604 191 27.9769 191 18.3789C191 8.78094 183.221 0.997498 173.623 0.997498C164.025 0.997498 156.247 8.78094 156.247 18.3789V47.2254H168.819V35.7604V18.3789C168.819 15.724 170.973 13.5704 173.628 13.5704C176.283 13.5704 178.437 15.724 178.437 18.3789C178.437 21.0339 176.283 23.1875 173.628 23.1875C173.246 23.1875 172.874 23.1445 172.52 23.0585V35.7269C172.883 35.746 173.251 35.7604 173.623 35.7604Z" fill="#FF2400"/>
<path d="M89.8293 18.3742V47.2207H77.2564V18.7419C77.2564 17.467 76.7502 16.2445 75.8477 15.342C74.9452 14.4395 73.7228 13.9334 72.4478 13.9334C71.1729 13.9334 69.9505 14.4395 69.048 15.342C68.1455 16.2445 67.6393 17.467 67.6393 18.7419C67.6393 18.7562 67.6393 18.7658 67.6393 18.7801V35.0824V47.2207H55.0664V18.3742C55.0664 8.77624 62.8451 0.992798 72.4431 0.992798C82.0458 0.992798 89.8293 8.77624 89.8293 18.3742Z" fill="#FF2400"/>
<path d="M117.778 29.8438V1.61334H130.351V13.1309V29.4093C130.351 29.4284 130.351 29.4523 130.351 29.4714C130.351 30.7463 130.857 31.9688 131.76 32.8713C132.662 33.7738 133.885 34.2799 135.16 34.2799C136.435 34.2799 137.657 33.7738 138.56 32.8713C139.462 31.9688 139.968 30.7463 139.968 29.4714V1.61334H152.541V29.8438C152.541 39.4418 144.758 47.2253 135.165 47.2253C125.557 47.2253 117.778 39.4418 117.778 29.8438Z" fill="#FF2400"/>
<path d="M78.646 61.8134C78.9946 61.4839 79.1713 61.0542 79.1713 60.5241C79.1713 60.5098 79.1713 60.4907 79.1713 60.462C79.1713 60.4334 79.1713 60.4143 79.1713 60.4C79.1713 59.2396 78.4741 58.6618 77.075 58.6618H76.0054V62.31H77.075C77.7722 62.3052 78.2927 62.1429 78.646 61.8134Z" fill="#00CFA6"/>
<path d="M77.6194 64.2775L76.0054 64.2966V68.217H77.5143C78.3786 68.217 79.0089 68.0451 79.4005 67.7061C79.792 67.3623 79.9878 66.88 79.9878 66.2497C79.9878 65.6623 79.8016 65.1896 79.4244 64.8267C79.0423 64.459 78.4407 64.2775 77.6194 64.2775Z" fill="#00CFA6"/>
<path d="M190.58 52.5258H0V63.8141C0.00477512 65.1989 0.276961 66.5741 0.802224 67.8539C1.33226 69.1336 2.10105 70.294 3.07518 71.2729C4.0493 72.2518 5.20011 73.0253 6.47029 73.5554C7.74047 74.0806 9.10138 74.3528 10.4718 74.3481H180.523C183.293 74.3481 185.953 73.2402 187.915 71.2681C189.878 69.296 190.99 66.6124 191 63.8141V52.5258H190.58ZM82.4568 66.2877C82.4568 67.5149 82.0366 68.4794 81.2009 69.167C80.3605 69.8594 79.119 70.2033 77.4715 70.2033H73.5321V56.6658H77.3044C78.6892 56.6658 79.7445 56.9666 80.4799 57.5683C81.2152 58.1699 81.5781 59.0151 81.5781 60.1039C81.5781 60.1325 81.5781 60.1612 81.5781 60.1898C81.5781 60.8345 81.4397 61.3788 81.1579 61.8229C80.8762 62.2718 80.4751 62.6347 79.9403 62.9116C80.6947 63.1217 81.3012 63.5038 81.7644 64.0529C82.2276 64.6068 82.4568 65.3183 82.4568 66.2017C82.4568 66.2304 82.4568 66.259 82.4568 66.2877ZM99.1553 70.2033H91.2143V56.6658H98.9452V58.9101H93.7929V62.1381H98.4439V64.4015H93.7929V67.9637H99.1553V70.2033ZM117.468 59.0772H113.299V70.2033H110.745V59.0772H106.595V56.6658H117.468V59.0772Z" fill="#00CFA6"/>
</svg>
