<svg width="54" height="54" viewBox="0 0 54 54" fill="none" xmlns="http://www.w3.org/2000/svg">
<g clip-path="url(#clip0_97_263)">
<path d="M35.4718 34.4044C34.2166 34.4044 33.1955 33.5206 33.1955 32.4343C33.1955 31.3479 34.2166 30.4641 35.4718 30.4641C36.7269 30.4641 37.748 31.3479 37.748 32.4343C37.748 33.0056 38.2113 33.4689 38.7827 33.4689C39.354 33.4689 39.8173 33.0056 39.8173 32.4343C39.8173 30.5383 38.4046 28.9441 36.5064 28.5114V27.9733C36.5064 27.4019 36.0431 26.9386 35.4718 26.9386C34.9004 26.9386 34.4371 27.4019 34.4371 27.9733V28.5114C32.5389 28.9441 31.1262 30.5383 31.1262 32.4343C31.1262 34.6616 33.0756 36.4737 35.4718 36.4737C36.7269 36.4737 37.748 37.3575 37.748 38.4439C37.748 39.5303 36.7269 40.4141 35.4718 40.4141C34.2166 40.4141 33.1955 39.5303 33.1955 38.4439C33.1955 37.8726 32.7322 37.4092 32.1609 37.4092C31.5895 37.4092 31.1262 37.8726 31.1262 38.4439C31.1262 40.3399 32.5389 41.9341 34.4371 42.3668V42.8138C34.4371 43.3851 34.9004 43.8484 35.4718 43.8484C36.0431 43.8484 36.5064 43.3851 36.5064 42.8138V42.3668C38.4046 41.9341 39.8173 40.3399 39.8173 38.4439C39.8173 36.2165 37.8679 34.4044 35.4718 34.4044Z" fill="#051115"/>
<path d="M46.8058 28.25C45.4543 26.1439 43.5501 24.4587 41.2992 23.3766C40.784 23.1289 40.1658 23.3458 39.9183 23.8608C39.6707 24.3759 39.8875 24.994 40.4025 25.2416C44.325 27.1272 46.8594 31.156 46.8594 35.5055C46.8594 37.3666 46.4007 39.2124 45.5329 40.8434C45.2645 41.3478 45.4558 41.9744 45.9603 42.2428C46.1151 42.3251 46.2815 42.3642 46.4454 42.3642C46.8156 42.3642 47.1737 42.165 47.3597 41.8154C48.3862 39.8863 48.9288 37.7044 48.9288 35.5055C48.9288 32.923 48.1947 30.4141 46.8058 28.25Z" fill="#051115"/>
<path d="M37.0992 22.0545L37.0295 22.0544C36.4582 22.0544 35.9949 22.5177 35.9949 23.0891C35.9949 23.6605 36.4582 24.1238 37.0295 24.1238L37.0894 24.1239C37.0911 24.1239 37.0927 24.1239 37.0944 24.1239C37.6636 24.1239 38.1263 23.6639 38.129 23.0941C38.1316 22.5226 37.6705 22.0572 37.0992 22.0545Z" fill="#051115"/>
<path d="M30.5522 45.7688C26.6298 43.8831 24.0954 39.8542 24.0954 35.5048C24.0954 33.6437 24.5542 31.798 25.422 30.1669C25.6904 29.6625 25.4991 29.036 24.9946 28.7676C24.4903 28.4992 23.8635 28.6905 23.5952 29.195C22.5687 31.1241 22.0261 33.306 22.0261 35.5048C22.0261 38.0873 22.7602 40.5962 24.149 42.7604C25.5006 44.8664 27.4048 46.5517 29.6557 47.6338C29.8002 47.7034 29.9529 47.7362 30.1033 47.7362C30.4886 47.7362 30.8584 47.52 31.0365 47.1496C31.2839 46.6346 31.0673 46.0163 30.5522 45.7688Z" fill="#051115"/>
<path d="M33.9252 46.8867L33.8652 46.8865C33.2912 46.8854 32.8285 47.3447 32.8259 47.9163C32.8232 48.4877 33.2845 48.9531 33.8558 48.9558L33.9252 48.956C34.4965 48.956 34.9598 48.4927 34.9598 47.9213C34.9598 47.35 34.4965 46.8867 33.9252 46.8867Z" fill="#051115"/>
<path d="M40.1751 18.5565C40.0492 18.2565 39.8949 17.9737 39.7154 17.7114H42.4091C45.0334 17.7114 47.1685 15.5763 47.1685 12.952C47.1685 10.3277 45.0334 8.19258 42.4091 8.19258H34.1235C34.6503 7.42672 34.9595 6.50019 34.9595 5.50247C34.9595 2.87816 32.8244 0.743042 30.2001 0.743042H4.85098C2.22667 0.743042 0.0915527 2.87816 0.0915527 5.50247C0.0915527 8.12677 2.22667 10.2619 4.85098 10.2619H13.1365C12.6098 11.0277 12.3005 11.9543 12.3005 12.952C12.3005 13.9497 12.6097 14.8763 13.1365 15.6421H10.4381C7.81382 15.6421 5.6787 17.7772 5.6787 20.4015C5.6787 21.9087 6.38372 23.2537 7.48056 24.1263C6.38372 24.9989 5.6787 26.3439 5.6787 27.8511C5.6787 29.3583 6.38372 30.7032 7.48056 31.5758C6.38372 32.4485 5.6787 33.7934 5.6787 35.3006C5.6787 36.8078 6.38372 38.1527 7.48056 39.0254C6.38372 39.898 5.6787 41.243 5.6787 42.7501C5.6787 45.3745 7.81382 47.5096 10.4381 47.5096H22.6316C25.8438 50.9454 30.4134 53.0968 35.477 53.0968C45.1756 53.0968 53.0661 45.2063 53.0661 35.5076C53.0661 27.4356 47.6 20.6171 40.1751 18.5565ZM42.4091 10.2619C43.8924 10.2619 45.0992 11.4687 45.0992 12.952C45.0992 14.4353 43.8924 15.6421 42.4091 15.6421H35.7872H17.0599C15.5766 15.6421 14.3698 14.4353 14.3698 12.952C14.3698 11.4687 15.5766 10.2619 17.0599 10.2619H42.4091ZM4.85098 8.19258C3.36759 8.19258 2.16087 6.98575 2.16087 5.50247C2.16087 4.01918 3.36759 2.81236 4.85098 2.81236H30.2001C31.6835 2.81236 32.8902 4.01918 32.8902 5.50247C32.8902 6.98575 31.6835 8.19258 30.2001 8.19258H4.85098ZM10.4381 17.7114H35.7872C36.204 17.7114 36.6031 17.8083 36.9611 17.9817C36.4717 17.9406 35.9769 17.9185 35.477 17.9185C30.6198 17.9185 26.2162 19.8977 23.0301 23.0916H10.4381C8.95485 23.0916 7.74802 21.8848 7.74802 20.4015C7.74802 18.9183 8.95485 17.7114 10.4381 17.7114ZM10.4381 25.161H21.2622C20.0877 26.7702 19.1795 28.5852 18.6028 30.5412H10.4381C8.95474 30.5412 7.74802 29.3345 7.74802 27.8511C7.74802 26.3678 8.95474 25.161 10.4381 25.161ZM10.4381 32.6105H18.1277C17.9708 33.5534 17.8878 34.5209 17.8878 35.5076C17.8878 36.3505 17.9487 37.1792 18.0639 37.9907H10.4381C8.95474 37.9907 7.74802 36.784 7.74802 35.3006C7.74802 33.8172 8.95474 32.6105 10.4381 32.6105ZM10.4381 45.4403C8.95474 45.4403 7.74802 44.2335 7.74802 42.7501C7.74802 41.2668 8.95474 40.06 10.4381 40.06H18.4863C19.0084 42.0065 19.8565 43.8206 20.9688 45.4403H10.4381ZM35.477 51.0275C26.9193 51.0275 19.9571 44.0653 19.9571 35.5076C19.9571 26.95 26.9193 19.9878 35.477 19.9878C44.0346 19.9878 50.9968 26.95 50.9968 35.5076C50.9968 44.0653 44.0346 51.0275 35.477 51.0275Z" fill="#051115"/>
</g>
<defs>
<clipPath id="clip0_97_263">
<rect width="52.9746" height="52.9746" fill="white" transform="translate(0.0915527 0.429932)"/>
</clipPath>
</defs>
</svg>
