<svg width="53" height="54" viewBox="0 0 53 54" fill="none" xmlns="http://www.w3.org/2000/svg">
<g clip-path="url(#clip0_97_254)">
<path d="M52.8778 43.3171C52.6292 42.1208 51.926 41.0987 50.8974 40.4387C49.8688 39.7791 48.647 39.5661 47.4555 39.8385L41.9339 41.1027V38.8454C43.0413 37.8023 44.1943 36.4403 45.0144 35.1954C46.4524 33.0126 47.4701 30.6155 48.0392 28.0721C48.7157 25.0461 48.7303 21.8427 48.0808 18.807C47.9612 18.2484 47.4111 17.892 46.8525 18.012C46.2936 18.1312 45.9379 18.6813 46.0571 19.2403C46.6448 21.9857 46.6319 24.8836 46.0196 27.6202C45.5055 29.9183 44.5856 32.0842 43.2862 34.0569C42.901 34.6417 42.4338 35.2553 41.9339 35.8413V24.3727C41.9339 23.8013 41.4707 23.3381 40.8992 23.3381H32.7145V12.289C32.7145 11.7192 32.2533 11.2564 31.6835 11.2544L22.4641 11.2233C22.4629 11.2233 22.462 11.2233 22.4608 11.2233C22.1868 11.2233 21.9241 11.3316 21.7305 11.5252C21.5357 11.7192 21.4262 11.9827 21.4262 12.2579V18.0055H13.2402C12.6692 18.0055 12.2056 18.4687 12.2056 19.0402V29.2862H9.90023V27.8809C9.90023 27.3098 9.43706 26.8466 8.86557 26.8466H7.80424C7.62358 25.852 7.5189 24.8416 7.49424 23.8328C7.43362 21.3799 7.82242 18.98 8.64934 16.6989C8.84213 16.167 9.06119 15.6367 9.30005 15.1234C9.54133 14.6053 9.31662 13.9898 8.79888 13.7485C8.28075 13.508 7.6652 13.7319 7.42432 14.25C7.1596 14.8183 6.9171 15.4052 6.7041 15.9936C5.78908 18.5176 5.35905 21.1726 5.42533 23.8837C5.44998 24.8747 5.54456 25.8665 5.70501 26.8466H1.03368C0.462195 26.8466 -0.000976562 27.3098 -0.000976562 27.8813V46.0679C-0.000976562 46.6393 0.462195 47.1025 1.03368 47.1025H8.86557C9.43706 47.1025 9.90023 46.6393 9.90023 46.0679V45.0841H13.7923L29.5584 51.2678C31.0303 51.8454 32.5722 52.136 34.1222 52.136C35.1556 52.136 36.1935 52.0066 37.2156 51.7468L49.573 48.606C51.9187 48.0099 53.3701 45.6867 52.8778 43.3171ZM39.8649 25.4074V41.5764L37.0988 42.2097C36.8014 42.2776 36.5007 42.3314 36.1984 42.3734C35.0457 42.5322 33.8696 42.4987 32.729 42.2728C32.7242 42.2715 32.7193 42.2707 32.7145 42.2695V40.7006C33.5034 39.5236 33.7649 38.0315 33.3514 36.6694C33.2363 36.2895 33.0726 35.9229 32.8644 35.5846C32.8171 35.5079 32.7678 35.4327 32.7165 35.3591C32.7161 35.3579 32.7153 35.3571 32.7145 35.3559V25.407H39.8649V25.4074ZM23.4955 13.2962L30.6456 13.3201V33.7126L26.6496 32.0587L23.4955 30.7529V13.2962ZM14.2749 20.0749H21.425V29.8956L20.1417 29.3646C20.016 29.3124 19.8815 29.2858 19.7461 29.2858H14.2749V20.0749ZM7.83091 45.0332H2.06834V28.9155H6.94983C6.95186 28.9155 6.95428 28.9159 6.95671 28.9159C6.95873 28.9159 6.96034 28.9155 6.96236 28.9155H7.83091V45.0332ZM49.0633 46.6005L36.706 49.7413C34.5728 50.2833 32.3624 50.1447 30.3137 49.3416L14.3658 43.0863C14.2454 43.039 14.1173 43.0152 13.9879 43.0152H9.90023V31.3555H19.5399L26.2345 34.1264L29.8979 35.6428C31.194 36.1804 31.8144 37.7008 31.2829 38.9954C31.1762 39.2553 31.0441 39.5022 30.8687 39.7225C30.2208 40.5401 29.1542 40.9006 28.1567 40.6581C28.1486 40.6561 28.1406 40.6541 28.1325 40.6521C28.0727 40.6371 28.0132 40.6197 27.9542 40.6003L20.9925 37.9239C20.9359 37.9021 20.906 37.8908 20.906 37.8908C20.3729 37.6855 19.7744 37.9518 19.569 38.4853C19.3641 39.0184 19.6301 39.6174 20.1636 39.8223C20.1636 39.8223 24.0888 41.3315 27.082 42.4857C27.1423 42.5092 27.2021 42.531 27.2623 42.5512L29.5608 43.4351C30.2555 43.7023 30.9471 43.9682 31.6701 44.1529C32.898 44.4666 34.1723 44.5927 35.4381 44.5235C36.1519 44.4847 36.8644 44.3861 37.5612 44.2269L41.1304 43.4101C41.134 43.4093 41.1377 43.4076 41.1413 43.4068L47.9175 41.8557C48.5621 41.7081 49.2238 41.8233 49.7799 42.1802C50.3368 42.5375 50.7171 43.0908 50.8517 43.7383C51.1185 45.0207 50.3328 46.278 49.0633 46.6005Z" fill="#051115"/>
<path d="M13.2292 9.13453C13.4766 9.13453 13.7247 9.04642 13.9224 8.86778C15.7686 7.2002 17.9733 5.8701 20.2993 5.02095C22.8192 4.10107 25.5817 3.70863 28.2884 3.88646C30.2255 4.01377 32.1235 4.42723 33.9293 5.11512C34.4628 5.31841 35.061 5.05085 35.2643 4.51655C35.468 3.98265 35.2 3.38489 34.6657 3.1816C32.6675 2.42015 30.5675 1.96264 28.4242 1.82159C25.4326 1.62516 22.3775 2.05923 19.5896 3.07732C17.0162 4.0166 14.5771 5.48816 12.5357 7.33196C12.1113 7.7151 12.0782 8.36945 12.4613 8.79341C12.6654 9.01975 12.9467 9.13453 13.2292 9.13453Z" fill="#051115"/>
<path d="M36.7174 16.5177C36.9134 16.6879 37.1551 16.7711 37.3956 16.7711C37.6845 16.7711 37.9723 16.6507 38.1772 16.4155L46.6897 6.61651C47.0648 6.18526 47.0187 5.53173 46.5875 5.15707C46.1558 4.78241 45.5027 4.82808 45.128 5.25932L36.6151 15.0583C36.2401 15.4895 36.2861 16.1431 36.7174 16.5177Z" fill="#051115"/>
<path d="M44.3451 12.0946C42.9128 12.0946 41.7476 13.2598 41.7476 14.6922C41.7476 16.1245 42.9128 17.2897 44.3451 17.2897C45.7775 17.2897 46.9427 16.1241 46.9427 14.6922C46.9427 13.2598 45.7775 12.0946 44.3451 12.0946ZM44.3451 15.2204C44.0537 15.2204 43.8169 14.9836 43.8169 14.6922C43.8169 14.4012 44.0537 14.1639 44.3451 14.1639C44.6361 14.1639 44.8734 14.4012 44.8734 14.6922C44.8734 14.9836 44.6361 15.2204 44.3451 15.2204Z" fill="#051115"/>
<path d="M38.6 9.79205C40.0324 9.79205 41.1976 8.62684 41.1976 7.19449C41.1976 5.76213 40.0324 4.59692 38.6 4.59692C37.1676 4.59692 36.0024 5.76213 36.0024 7.19449C36.0024 8.62684 37.1676 9.79205 38.6 9.79205ZM38.6 6.66584C38.8914 6.66584 39.1282 6.90308 39.1282 7.19449C39.1282 7.48548 38.8914 7.72273 38.6 7.72273C38.3086 7.72273 38.0718 7.48548 38.0718 7.19449C38.0718 6.90308 38.3086 6.66584 38.6 6.66584Z" fill="#051115"/>
<path d="M9.55289 11.5662C9.7186 11.9639 10.1264 12.2266 10.5585 12.2039C10.9857 12.1817 11.3599 11.8927 11.4921 11.4869C11.6254 11.0775 11.4799 10.6111 11.1376 10.3496C10.7888 10.0837 10.299 10.0671 9.93361 10.31C9.52824 10.5796 9.36576 11.1171 9.55289 11.5662Z" fill="#051115"/>
</g>
<defs>
<clipPath id="clip0_97_254">
<rect width="52.9746" height="52.9746" fill="white" transform="translate(0 0.429932)"/>
</clipPath>
</defs>
</svg>
